<svg xmlns="http://www.w3.org/2000/svg" viewBox="0 0 32 32" fill="none">
  <rect width="32" height="32" rx="8" fill="#0a0e27"/>
  <path d="M8 7C8 6.44772 8.44772 6 9 6H14C14.5523 6 15 6.44772 15 7V25C15 25.5523 14.5523 26 14 26H9C8.44772 26 8 25.5523 8 25V7Z" fill="#c4f82a"/>
  <path d="M17 7C17 6.44772 17.4477 6 18 6H23C23.5523 6 24 6.44772 24 7V13C24 13.5523 23.5523 14 23 14H18C17.4477 14 17 13.5523 17 13V7Z" fill="#c4f82a" opacity="0.7"/>
  <path d="M17 18C17 17.4477 17.4477 17 18 17H23C23.5523 17 24 17.4477 24 18V25C24 25.5523 23.5523 26 23 26H18C17.4477 26 17 25.5523 17 25V18Z" fill="#c4f82a" opacity="0.5"/>
</svg>
